<svg   width="24" height="24" viewBox="0 0 24 24" fill="none" xmlns="http://www.w3.org/2000/svg" >
   <path
   style="border-radius: 100%"
            fillRule="evenodd"
            clipRule="evenodd"
            d="M18.6975 12C18.6975 15.6989 15.6989 18.6975 12 18.6975C8.30107 18.6975 5.30251 15.6989 5.30251 12C5.30251 8.30109 8.30107 5.30252 12 5.30252C15.6989 5.30252 18.6975 8.30109 18.6975 12ZM21.6975 12C21.6975 17.3558 17.3558 21.6975 12 21.6975C6.64422 21.6975 2.30251 17.3558 2.30251 12C2.30251 6.64423 6.64422 2.30252 12 2.30252C17.3558 2.30252 21.6975 6.64423 21.6975 12ZM10.768 9.76801C10.2157 9.76801 9.76799 10.2157 9.76799 10.768V13.232C9.76799 13.7843 10.2157 14.232 10.768 14.232H13.232C13.7843 14.232 14.232 13.7843 14.232 13.232V10.768C14.232 10.2157 13.7843 9.76801 13.232 9.76801H10.768Z"
            fill="#105DFF"
        />
</svg>
