<svg width="24" height="24" viewBox="0 0 24 24" fill="none" xmlns="http://www.w3.org/2000/svg" >
  <path
                d="M12 24C18.6274 24 24 18.6274 24 12C24 5.37258 18.6274 0 12 0C5.37258 0 0 5.37258 0 12C0 18.6274 5.37258 24 12 24Z"
                fill="#0364FF"
            />
            <path
                fillRule="evenodd"
                clipRule="evenodd"
                d="M8.0388 7.12048C7.46527 7.12048 7.00034 7.58542 7.00034 8.15895V9.36868C7.00034 9.94222 7.46527 10.4072 8.0388 10.4072H9.87614V17.1745C9.87614 17.7481 10.3411 18.213 10.9146 18.213H12.1243C12.6978 18.213 13.1628 17.7481 13.1628 17.1745V9.37748C13.1628 9.37455 13.1628 9.37162 13.1628 9.36868V8.15895C13.1628 7.58542 12.6979 7.12048 12.1244 7.12048H10.9146H8.0388Z"
                fill="white"
            />
            <path
                d="M15.6284 10.4072C16.5359 10.4072 17.2717 9.67142 17.2717 8.76382C17.2717 7.85625 16.5359 7.12048 15.6284 7.12048C14.7208 7.12048 13.985 7.85625 13.985 8.76382C13.985 9.67142 14.7208 10.4072 15.6284 10.4072Z"
                fill="white"
            />
</svg>
